# xmcd
#
# Track frame offsets:
#	150
#	15227
#	30171
#	46216
#	67612
#	86073
#	105239
#	123857
#	139767
#	153042
#	171777
#
# Disc length: 2707 seconds
#
# Revision: 1
# Processed by: cddbd v1.5.2PL0 Copyright (c) Steve Scherf et al.
# Submitted via: audiograbber 1.83.01
#
DISCID=6b0a910b
DTITLE=Александр Маршал и Вячеслав Быков - Где ночует солнце
DYEAR=2008
DGENRE=Chanson
TTITLE0=Назову тебя облаком
TTITLE1=Туман
TTITLE2=Пусть зима станет летом
TTITLE3=Там, где ты
TTITLE4=Полночный экспресс
TTITLE5=Мой дом
TTITLE6=Маленькое сердце
TTITLE7=Белая река
TTITLE8=Я вернусь генералом
TTITLE9=Где кончается ночь
TTITLE10=Где ночует солнце
EXTD=
EXTT0=
EXTT1=
EXTT2=
EXTT3=
EXTT4=
EXTT5=
EXTT6=
EXTT7=
EXTT8=
EXTT9=
EXTT10=
PLAYORDER=
